<svg width="37.183105" height="24.000000" viewBox="0 0 37.1831 24" fill="none" xmlns="http://www.w3.org/2000/svg" xmlns:xlink="http://www.w3.org/1999/xlink">
	<desc>
			Created with Pixso.
	</desc>
	<defs>
		<clipPath id="clip1_764">
			<rect id="1" width="37.183098" height="24.000000" fill="white" fill-opacity="0"/>
		</clipPath>
	</defs>
	<rect id="1" width="37.183098" height="24.000000" fill="#FFFFFF" fill-opacity="0"/>
	<g clip-path="url(#clip1_764)">
		<path id="Vector" d="M34.24 0L2.93 0C1.27 0 0 1.29 0 3L0 21C0 22.7 1.37 24 2.93 24L34.24 24C35.91 24 37.18 22.7 37.18 21L37.18 3C37.18 1.29 35.81 0 34.24 0Z" fill="#F3F5F6" fill-opacity="1.000000" fill-rule="nonzero"/>
		<path id="Vector" d="M34.24 1C35.32 1 36.2 1.89 36.2 3L36.2 21C36.2 22.1 35.32 23 34.24 23L2.93 23C1.85 23 0.97 22.1 0.97 21L0.97 3C0.97 1.89 1.85 1 2.93 1L34.24 1Z" fill="#FFFFFF" fill-opacity="1.000000" fill-rule="nonzero"/>
		<path id="Vector" d="M27.69 10.1L27.39 10.1C27 11.1 26.71 11.6 26.41 13.1L28.27 13.1C27.98 11.6 27.98 10.89 27.69 10.1ZM30.52 16L28.86 16C28.76 16 28.76 16 28.67 15.89L28.47 15L28.37 14.79L26.02 14.79C25.93 14.79 25.83 14.79 25.83 15L25.53 15.89C25.53 16 25.44 16 25.44 16L23.38 16L23.58 15.5L26.41 8.7C26.41 8.2 26.71 8 27.2 8L28.67 8C28.76 8 28.86 8 28.86 8.2L30.23 14.7C30.33 15.1 30.43 15.39 30.43 15.79C30.52 15.89 30.52 15.89 30.52 16ZM17.41 15.7L17.8 13.89C17.9 13.89 18 14 18 14C18.68 14.29 19.37 14.5 20.05 14.39C20.25 14.39 20.54 14.29 20.74 14.2C21.23 14 21.23 13.5 20.84 13.1C20.64 12.89 20.35 12.79 20.05 12.6C19.66 12.39 19.27 12.2 18.98 11.89C17.8 10.89 18.2 9.5 18.88 8.79C19.47 8.39 19.76 8 20.54 8C21.72 8 22.99 8 23.58 8.2L23.67 8.2C23.58 8.79 23.48 9.29 23.28 9.89C22.79 9.7 22.31 9.5 21.82 9.5C21.52 9.5 21.23 9.5 20.93 9.6C20.74 9.6 20.64 9.7 20.54 9.79C20.35 10 20.35 10.29 20.54 10.5L21.03 10.89C21.42 11.1 21.82 11.29 22.11 11.5C22.6 11.79 23.09 12.29 23.19 12.89C23.38 13.79 23.09 14.6 22.31 15.2C21.82 15.6 21.62 15.79 20.93 15.79C19.57 15.79 18.49 15.89 17.61 15.6C17.51 15.79 17.51 15.79 17.41 15.7ZM13.99 16C14.09 15.29 14.09 15.29 14.18 15C14.67 12.79 15.16 10.5 15.55 8.29C15.65 8.1 15.65 8 15.85 8L17.61 8C17.41 9.2 17.22 10.1 16.92 11.2C16.63 12.7 16.34 14.2 15.94 15.7C15.94 15.89 15.85 15.89 15.65 15.89L13.99 16ZM4.89 8.2C4.89 8.1 5.08 8 5.18 8L8.51 8C9 8 9.39 8.29 9.49 8.79L10.37 13.2C10.37 13.29 10.37 13.29 10.47 13.39C10.47 13.29 10.56 13.29 10.56 13.29L12.62 8.2C12.52 8.1 12.62 8 12.72 8L14.77 8C14.77 8.1 14.77 8.1 14.67 8.2L11.64 15.5C11.54 15.7 11.54 15.79 11.44 15.89C11.35 16 11.15 15.89 10.95 15.89L9.49 15.89C9.39 15.89 9.29 15.89 9.29 15.7L7.73 9.5C7.53 9.29 7.24 9 6.84 8.89C6.26 8.6 5.18 8.39 4.99 8.39L4.89 8.2Z" fill="#142688" fill-opacity="1.000000" fill-rule="nonzero"/>
	</g>
</svg>
