<svg width="37.183105" height="24.000000" viewBox="0 0 37.1831 24" fill="none" xmlns="http://www.w3.org/2000/svg" xmlns:xlink="http://www.w3.org/1999/xlink">
	<desc>
			Created with Pixso.
	</desc>
	<defs>
		<clipPath id="clip1_768">
			<rect id="2" width="37.183098" height="24.000000" fill="white" fill-opacity="0"/>
		</clipPath>
	</defs>
	<rect id="2" width="37.183098" height="24.000000" fill="#FFFFFF" fill-opacity="0"/>
	<g clip-path="url(#clip1_768)">
		<path id="Vector" d="M34.24 0L2.93 0C1.27 0 0 1.29 0 3L0 21C0 22.7 1.37 24 2.93 24L34.24 24C35.91 24 37.18 22.7 37.18 21L37.18 3C37.18 1.29 35.81 0 34.24 0Z" fill="#F3F5F6" fill-opacity="1.000000" fill-rule="nonzero"/>
		<path id="Vector" d="M34.24 1C35.32 1 36.2 1.89 36.2 3L36.2 21C36.2 22.1 35.32 23 34.24 23L2.93 23C1.85 23 0.97 22.1 0.97 21L0.97 3C0.97 1.89 1.85 1 2.93 1L34.24 1Z" fill="#FFFFFF" fill-opacity="1.000000" fill-rule="nonzero"/>
		<path id="Vector" d="M21.52 12C21.52 15.86 18.46 19 14.67 19C10.89 19 7.82 15.86 7.82 12C7.82 8.13 10.89 5 14.67 5C18.46 5 21.52 8.13 21.52 12Z" fill="#EB001B" fill-opacity="1.000000" fill-rule="evenodd"/>
		<path id="Vector" d="M29.35 12C29.35 15.86 26.28 19 22.5 19C18.72 19 15.65 15.86 15.65 12C15.65 8.13 18.72 5 22.5 5C26.28 5 29.35 8.13 29.35 12Z" fill="#F79E1B" fill-opacity="1.000000" fill-rule="evenodd"/>
		<path id="Vector" d="M21.52 12C21.52 9.59 20.35 7.5 18.59 6.29C16.83 7.59 15.65 9.69 15.65 12C15.65 14.29 16.83 16.5 18.59 17.69C20.35 16.5 21.52 14.39 21.52 12Z" fill="#FF5F00" fill-opacity="1.000000" fill-rule="nonzero"/>
	</g>
</svg>
