<svg width="37.183105" height="24.000000" viewBox="0 0 37.1831 24" fill="none" xmlns="http://www.w3.org/2000/svg" xmlns:xlink="http://www.w3.org/1999/xlink">
	<desc>
			Created with Pixso.
	</desc>
	<defs>
		<clipPath id="clip1_774">
			<rect id="3" width="37.183098" height="24.000000" fill="white" fill-opacity="0"/>
		</clipPath>
	</defs>
	<rect id="3" width="37.183098" height="24.000000" fill="#FFFFFF" fill-opacity="0"/>
	<g clip-path="url(#clip1_774)">
		<path id="Vector" d="M33.64 0L3.53 0C3.41 0 3.28 0 3.15 0C3.05 0 2.94 0 2.84 0C2.61 0.01 2.37 0.02 2.15 0.06C1.92 0.1 1.7 0.18 1.49 0.28C1.08 0.5 0.74 0.84 0.53 1.27C0.42 1.48 0.35 1.71 0.31 1.94C0.27 2.17 0.26 2.41 0.25 2.64C0.25 2.75 0.25 2.86 0.25 2.97C0.25 3.1 0.25 3.22 0.25 3.35L0.25 20.64C0.25 20.77 0.25 20.89 0.25 21.02C0.25 21.13 0.25 21.24 0.25 21.35C0.26 21.58 0.27 21.82 0.31 22.05C0.35 22.28 0.42 22.51 0.53 22.72C0.63 22.93 0.77 23.12 0.93 23.29C1.1 23.46 1.29 23.6 1.49 23.71C1.7 23.82 1.92 23.89 2.15 23.93C2.37 23.97 2.61 23.98 2.84 23.99C2.94 23.99 3.05 23.99 3.15 23.99C3.28 24 3.41 24 3.53 24L33.64 24C33.77 24 33.89 24 34.02 23.99C34.12 23.99 34.23 23.99 34.34 23.99C34.57 23.98 34.8 23.97 35.03 23.93C35.25 23.89 35.48 23.81 35.68 23.71C36.1 23.49 36.43 23.15 36.65 22.72C36.75 22.51 36.82 22.29 36.86 22.05C36.9 21.82 36.92 21.58 36.92 21.35C36.93 21.24 36.93 21.13 36.93 21.02C36.93 20.89 36.93 20.77 36.93 20.64L36.93 3.35C36.93 3.22 36.93 3.1 36.93 2.97C36.93 2.86 36.93 2.75 36.92 2.64C36.92 2.41 36.9 2.17 36.86 1.94C36.82 1.71 36.75 1.48 36.65 1.27C36.43 0.84 36.1 0.5 35.68 0.28C35.48 0.18 35.25 0.1 35.03 0.06C34.8 0.02 34.57 0.01 34.34 0C34.23 0 34.13 0 34.02 0C33.89 0 33.77 0 33.64 0Z" fill="#F3F5F6" fill-opacity="1.000000" fill-rule="nonzero"/>
		<path id="Vector" d="M33.64 0.79L34.01 0.8C34.11 0.8 34.21 0.8 34.31 0.8C34.49 0.81 34.7 0.81 34.89 0.85C35.05 0.88 35.19 0.93 35.33 1C35.59 1.14 35.81 1.36 35.95 1.63C36.02 1.77 36.06 1.91 36.09 2.08C36.13 2.27 36.14 2.49 36.14 2.67C36.14 2.77 36.14 2.87 36.14 2.97C36.14 3.1 36.14 3.23 36.14 3.35L36.14 20.64C36.14 20.76 36.14 20.89 36.14 21.02C36.14 21.12 36.14 21.22 36.14 21.32C36.14 21.5 36.13 21.72 36.09 21.91C36.07 22.07 36.02 22.22 35.95 22.36C35.81 22.63 35.59 22.85 35.33 22.99C35.19 23.06 35.05 23.11 34.89 23.14C34.69 23.18 34.48 23.18 34.32 23.19C34.22 23.19 34.12 23.19 34.01 23.19C33.89 23.19 33.77 23.19 33.64 23.19L3.53 23.19C3.4 23.19 3.28 23.19 3.16 23.19C3.06 23.19 2.96 23.19 2.86 23.19C2.69 23.19 2.48 23.18 2.29 23.14C2.13 23.11 1.98 23.06 1.85 22.99C1.71 22.92 1.59 22.83 1.49 22.73C1.38 22.62 1.29 22.49 1.22 22.36C1.16 22.22 1.11 22.06 1.08 21.91C1.05 21.71 1.04 21.5 1.03 21.32C1.03 21.22 1.03 21.12 1.03 21.02L1.03 20.72L1.03 3.27L1.03 2.97C1.03 2.87 1.03 2.77 1.03 2.67C1.04 2.49 1.05 2.28 1.08 2.08C1.11 1.92 1.16 1.77 1.22 1.63C1.29 1.5 1.38 1.37 1.49 1.26C1.59 1.16 1.71 1.07 1.85 1C1.98 0.93 2.13 0.88 2.29 0.85C2.48 0.81 2.68 0.81 2.86 0.8C2.96 0.8 3.06 0.8 3.16 0.8L3.53 0.79L33.64 0.79Z" fill="#FFFFFF" fill-opacity="1.000000" fill-rule="nonzero"/>
		<path id="Vector" d="M9.89 8.1C10.2 7.7 10.41 7.17 10.35 6.62C9.9 6.64 9.34 6.93 9.02 7.33C8.73 7.67 8.48 8.22 8.54 8.74C9.05 8.79 9.57 8.48 9.89 8.1Z" fill="#000000" fill-opacity="1.000000" fill-rule="nonzero"/>
		<path id="Vector" d="M10.35 8.85C9.61 8.8 8.97 9.28 8.62 9.28C8.27 9.28 7.72 8.87 7.14 8.88C6.37 8.89 5.66 9.33 5.28 10.04C4.48 11.44 5.07 13.52 5.84 14.67C6.22 15.23 6.67 15.86 7.27 15.83C7.83 15.81 8.06 15.46 8.74 15.46C9.43 15.46 9.63 15.83 10.23 15.82C10.85 15.81 11.23 15.26 11.61 14.69C12.04 14.04 12.22 13.42 12.23 13.39C12.22 13.38 11.03 12.91 11.02 11.52C11.01 10.35 11.95 9.8 12 9.76C11.47 8.96 10.64 8.87 10.35 8.85Z" fill="#000000" fill-opacity="1.000000" fill-rule="nonzero"/>
		<path id="Vector" d="M17.75 7.27C19.36 7.27 20.48 8.4 20.48 10.06C20.48 11.72 19.34 12.86 17.71 12.86L15.92 12.86L15.92 15.76L14.63 15.76L14.63 7.27L17.75 7.27ZM15.92 11.75L17.4 11.75C18.53 11.75 19.16 11.14 19.16 10.06C19.16 8.99 18.52 8.38 17.41 8.38L15.92 8.38L15.92 11.75Z" fill="#000000" fill-opacity="1.000000" fill-rule="nonzero"/>
		<path id="Vector" d="M20.8 14C20.8 12.91 21.62 12.29 23.11 12.2L24.72 12.1L24.72 11.62C24.72 10.94 24.28 10.56 23.49 10.56C22.84 10.56 22.36 10.9 22.27 11.42L21.1 11.42C21.14 10.32 22.15 9.52 23.52 9.52C25 9.52 25.96 10.31 25.96 11.54L25.96 15.76L24.77 15.76L24.77 14.74L24.74 14.74C24.4 15.41 23.65 15.83 22.84 15.83C21.64 15.83 20.8 15.1 20.8 14ZM24.72 13.46L24.72 12.98L23.29 13.07C22.48 13.13 22.06 13.43 22.06 13.97C22.06 14.49 22.5 14.82 23.18 14.82C24.06 14.82 24.72 14.25 24.72 13.46Z" fill="#000000" fill-opacity="1.000000" fill-rule="nonzero"/>
		<path id="Vector" d="M27.06 18.04L27.06 17.02C27.14 17.03 27.33 17.04 27.44 17.04C28.01 17.04 28.33 16.79 28.52 16.16L28.64 15.78L26.46 9.6L27.8 9.6L29.33 14.61L29.35 14.61L30.87 9.6L32.19 9.6L29.92 16.09C29.41 17.58 28.81 18.07 27.56 18.07C27.46 18.07 27.14 18.06 27.06 18.04Z" fill="#000000" fill-opacity="1.000000" fill-rule="nonzero"/>
	</g>
</svg>
