<svg width="37.183105" height="24.000000" viewBox="0 0 37.1831 24" fill="none" xmlns="http://www.w3.org/2000/svg" xmlns:xlink="http://www.w3.org/1999/xlink">
	<desc>
			Created with Pixso.
	</desc>
	<defs>
		<clipPath id="clip1_785">
			<rect id="4" width="37.183098" height="24.000000" fill="white" fill-opacity="0"/>
		</clipPath>
		<linearGradient x1="21.191694" y1="12.275046" x2="19.210228" y2="9.104046" id="paint_linear_1_789_0" gradientUnits="userSpaceOnUse">
			<stop stop-color="#F89F20"/>
			<stop offset="0.250000" stop-color="#F79A20"/>
			<stop offset="0.533000" stop-color="#F68D20"/>
			<stop offset="0.620000" stop-color="#F58720"/>
			<stop offset="0.723000" stop-color="#F48120"/>
			<stop offset="1.000000" stop-color="#F37521"/>
		</linearGradient>
		<linearGradient x1="20.879555" y1="12.232046" x2="17.983185" y2="6.446047" id="paint_linear_1_790_0" gradientUnits="userSpaceOnUse">
			<stop stop-color="#F58720"/>
			<stop offset="0.359000" stop-color="#E16F27"/>
			<stop offset="0.703000" stop-color="#D4602C"/>
			<stop offset="0.982000" stop-color="#D05B2E"/>
		</linearGradient>
	</defs>
	<rect id="4" width="37.183098" height="24.000000" fill="#FFFFFF" fill-opacity="0"/>
	<g clip-path="url(#clip1_785)">
		<path id="Vector" d="M34.24 0L2.93 0C1.27 0 0 1.29 0 3L0 21C0 22.7 1.37 24 2.93 24L34.24 24C35.91 24 37.18 22.7 37.18 21L37.18 3C37.18 1.29 35.81 0 34.24 0Z" fill="#F3F5F6" fill-opacity="1.000000" fill-rule="nonzero"/>
		<path id="Vector" d="M34.24 1C35.32 1 36.2 1.89 36.2 3L36.2 21C36.2 22.1 35.32 23 34.24 23L2.93 23C1.85 23 0.97 22.1 0.97 21L0.97 3C0.97 1.89 1.85 1 2.93 1L34.24 1Z" fill="#FFFFFF" fill-opacity="1.000000" fill-rule="nonzero"/>
		<path id="Vector" d="M3.49 7.16L1.95 7.16L1.95 12.66L3.49 12.66C4.3 12.66 4.89 12.46 5.41 12.03C6.02 11.51 6.38 10.73 6.38 9.91C6.37 8.29 5.19 7.16 3.49 7.16ZM4.72 11.29C4.39 11.6 3.97 11.74 3.28 11.74L3 11.74L3 8.1L3.28 8.1C3.96 8.1 4.37 8.22 4.72 8.54C5.08 8.87 5.3 9.37 5.3 9.91C5.3 10.43 5.08 10.97 4.72 11.29ZM6.86 7.16L7.91 7.16L7.91 12.66L6.86 12.66L6.86 7.16ZM10.48 9.27C9.85 9.03 9.66 8.87 9.66 8.58C9.66 8.22 10 7.97 10.45 7.97C10.76 7.97 11.02 8.1 11.29 8.41L11.83 7.68C11.38 7.29 10.85 7.08 10.25 7.08C9.3 7.08 8.57 7.76 8.57 8.66C8.57 9.41 8.91 9.81 9.89 10.16C10.3 10.31 10.5 10.41 10.61 10.48C10.82 10.62 10.92 10.81 10.92 11.04C10.92 11.5 10.58 11.83 10.11 11.83C9.61 11.83 9.21 11.56 8.97 11.1L8.29 11.77C8.77 12.5 9.36 12.81 10.15 12.81C11.24 12.81 12.01 12.08 12.01 11.01C12.03 10.12 11.67 9.72 10.48 9.27ZM12.35 9.91C12.35 11.54 13.6 12.79 15.19 12.79C15.64 12.79 16.03 12.7 16.5 12.47L16.5 11.21C16.08 11.64 15.71 11.81 15.24 11.81C14.18 11.81 13.43 11.03 13.43 9.91C13.43 8.85 14.2 8.02 15.19 8.02C15.69 8.02 16.07 8.2 16.5 8.64L16.5 7.37C16.04 7.14 15.66 7.04 15.21 7.04C13.64 7.04 12.35 8.31 12.35 9.91ZM24.84 10.85L23.4 7.16L22.26 7.16L24.54 12.79L25.1 12.79L27.42 7.16L26.29 7.16L24.84 10.85ZM27.9 12.66L30.88 12.66L30.88 11.73L28.95 11.73L28.95 10.25L30.81 10.25L30.81 9.31L28.95 9.31L28.95 8.1L30.88 8.1L30.88 7.16L27.9 7.16L27.9 12.66ZM35.04 8.79C35.04 7.76 34.34 7.16 33.13 7.16L31.57 7.16L31.57 12.66L32.62 12.66L32.62 10.46L32.76 10.46L34.2 12.66L35.5 12.66L33.8 10.35C34.6 10.18 35.04 9.62 35.04 8.79ZM32.92 9.7L32.62 9.7L32.62 8.03L32.94 8.03C33.6 8.03 33.95 8.31 33.95 8.85C33.95 9.39 33.6 9.7 32.92 9.7Z" fill="#231F20" fill-opacity="1.000000" fill-rule="nonzero"/>
		<path id="Vector" d="M19.72 12.85C20.48 12.85 21.21 12.55 21.75 12C22.29 11.45 22.59 10.7 22.59 9.92C22.59 9.15 22.29 8.4 21.75 7.85C21.21 7.3 20.48 6.99 19.72 6.99C18.96 6.99 18.23 7.3 17.69 7.85C17.16 8.4 16.85 9.15 16.85 9.92C16.85 10.7 17.16 11.45 17.69 12C18.23 12.55 18.96 12.85 19.72 12.85Z" fill="url(#paint_linear_1_789_0)" fill-opacity="1.000000" fill-rule="nonzero"/>
		<g opacity="0.650000">
			<path id="Vector" d="M19.72 12.85C20.48 12.85 21.21 12.55 21.75 12C22.29 11.45 22.59 10.7 22.59 9.92C22.59 9.15 22.29 8.4 21.75 7.85C21.21 7.3 20.48 6.99 19.72 6.99C18.96 6.99 18.23 7.3 17.69 7.85C17.16 8.4 16.85 9.15 16.85 9.92C16.85 10.7 17.16 11.45 17.69 12C18.23 12.55 18.96 12.85 19.72 12.85Z" fill="url(#paint_linear_1_790_0)" fill-opacity="1.000000" fill-rule="nonzero"/>
		</g>
		<path id="Vector" d="M35.78 7.5C35.78 7.4 35.71 7.35 35.6 7.35L35.45 7.35L35.45 7.83L35.56 7.83L35.56 7.64L35.7 7.83L35.84 7.83L35.68 7.63C35.74 7.62 35.78 7.57 35.78 7.5ZM35.58 7.57L35.56 7.57L35.56 7.44L35.58 7.44C35.64 7.44 35.67 7.46 35.67 7.5C35.67 7.55 35.64 7.57 35.58 7.57Z" fill="#231F20" fill-opacity="1.000000" fill-rule="nonzero"/>
		<path id="Vector" d="M35.62 7.17C35.4 7.17 35.21 7.36 35.21 7.59C35.21 7.82 35.4 8.01 35.62 8.01C35.85 8.01 36.03 7.82 36.03 7.59C36.03 7.36 35.85 7.17 35.62 7.17ZM35.62 7.94C35.45 7.94 35.29 7.79 35.29 7.59C35.29 7.4 35.44 7.24 35.62 7.24C35.8 7.24 35.95 7.4 35.95 7.59C35.95 7.78 35.8 7.94 35.62 7.94Z" fill="#231F20" fill-opacity="1.000000" fill-rule="nonzero"/>
		<path id="Vector" d="M36.2 12.98C36.2 12.98 26.5 19.87 8.78 23L34.24 23C34.76 23 35.25 22.79 35.62 22.41C35.99 22.04 36.19 21.54 36.2 21.01L36.22 17.99L36.2 12.98L36.2 12.98Z" fill="#F48120" fill-opacity="1.000000" fill-rule="nonzero"/>
	</g>
</svg>
