<svg width="37.183105" height="24.000000" viewBox="0 0 37.1831 24" fill="none" xmlns="http://www.w3.org/2000/svg" xmlns:xlink="http://www.w3.org/1999/xlink">
	<desc>
			Created with Pixso.
	</desc>
	<defs>
		<clipPath id="clip1_794">
			<rect id="5" width="37.183098" height="24.000000" fill="white" fill-opacity="0"/>
		</clipPath>
	</defs>
	<rect id="5" width="37.183098" height="24.000000" fill="#FFFFFF" fill-opacity="0"/>
	<g clip-path="url(#clip1_794)">
		<path id="Vector" d="M34.24 0L2.93 0C1.27 0 0 1.29 0 3L0 21C0 22.7 1.37 24 2.93 24L34.24 24C35.91 24 37.18 22.7 37.18 21L37.18 3C37.18 1.29 35.81 0 34.24 0Z" fill="#F3F5F6" fill-opacity="1.000000" fill-rule="nonzero"/>
		<path id="Vector" d="M34.24 1C35.32 1 36.2 1.89 36.2 3L36.2 21C36.2 22.1 35.32 23 34.24 23L2.93 23C1.85 23 0.97 22.1 0.97 21L0.97 3C0.97 1.89 1.85 1 2.93 1L34.24 1Z" fill="#FFFFFF" fill-opacity="1.000000" fill-rule="nonzero"/>
		<path id="Vector" d="M23.38 8.29C23.58 7.29 23.38 6.6 22.79 6C22.21 5.29 21.13 5 19.76 5L15.75 5C15.46 5 15.26 5.2 15.16 5.5L13.69 15.6C13.69 15.79 13.79 16 13.99 16L16.63 16L17.02 12.6L18.78 10.39L23.38 8.29Z" fill="#003087" fill-opacity="1.000000" fill-rule="nonzero"/>
		<path id="Vector" d="M23.38 8.29L23.19 8.5C22.7 11.29 21.03 12.29 18.68 12.29L17.61 12.29C17.31 12.29 17.12 12.5 17.02 12.79L16.43 16.69L16.24 17.69C16.24 17.89 16.34 18.09 16.53 18.09L18.59 18.09C18.88 18.09 19.08 17.89 19.08 17.69L19.08 17.59L19.47 15.19L19.47 15.09C19.47 14.89 19.76 14.69 19.96 14.69L20.25 14.69C22.31 14.69 23.87 13.89 24.26 11.5C24.46 10.5 24.36 9.69 23.87 9.09C23.77 8.59 23.58 8.39 23.38 8.29Z" fill="#3086C8" fill-opacity="1.000000" fill-rule="nonzero"/>
		<path id="Vector" d="M22.79 8.09C22.7 8 22.6 8 22.5 8C22.4 8 22.31 8 22.21 7.89C21.91 7.79 21.52 7.79 21.13 7.79L18.2 7.79C18.1 7.79 18 7.79 18 7.89C17.8 8 17.71 8.09 17.71 8.29L17.02 12.69L17.02 12.79C17.02 12.5 17.31 12.29 17.61 12.29L18.88 12.29C21.33 12.29 22.89 11.29 23.38 8.5L23.38 8.29C23.28 8.19 23.09 8.09 22.89 8.09L22.79 8.09Z" fill="#012169" fill-opacity="1.000000" fill-rule="nonzero"/>
	</g>
</svg>
