<svg width="37.183105" height="24.000000" viewBox="0 0 37.1831 24" fill="none" xmlns="http://www.w3.org/2000/svg" xmlns:xlink="http://www.w3.org/1999/xlink">
	<desc>
			Created with Pixso.
	</desc>
	<defs>
		<clipPath id="clip1_800">
			<rect id="6" width="37.183098" height="24.000000" fill="white" fill-opacity="0"/>
		</clipPath>
	</defs>
	<rect id="6" width="37.183098" height="24.000000" fill="#FFFFFF" fill-opacity="0"/>
	<g clip-path="url(#clip1_800)">
		<path id="Vector" d="M34.24 0L2.93 0C1.27 0 0 1.29 0 3L0 21C0 22.7 1.37 24 2.93 24L34.24 24C35.91 24 37.18 22.7 37.18 21L37.18 3C37.18 1.29 35.81 0 34.24 0Z" fill="#F3F5F6" fill-opacity="1.000000" fill-rule="nonzero"/>
		<path id="Vector" d="M34.24 1C35.32 1 36.2 1.89 36.2 3L36.2 21C36.2 22.1 35.32 23 34.24 23L2.93 23C1.85 23 0.97 22.1 0.97 21L0.97 3C0.97 1.89 1.85 1 2.93 1L34.24 1Z" fill="#006FCF" fill-opacity="1.000000" fill-rule="nonzero"/>
		<path id="Vector" d="M8.77 10.26L9.53 12.14L8.02 12.14L8.77 10.26ZM24.5 10.34L21.59 10.34L21.59 11.17L24.46 11.17L24.46 12.41L21.6 12.41L21.6 13.33L24.51 13.33L24.51 14.07L26.54 11.82L24.51 9.48L24.5 10.34ZM10.74 8L14.65 8L15.52 9.94L16.32 8L26.47 8L27.53 9.18L28.62 8L33.28 8L29.83 11.85L33.24 15.68L28.51 15.68L27.46 14.49L26.36 15.68L9.81 15.68L9.33 14.49L8.22 14.49L7.74 15.68L3.91 15.68L7.12 8L10.48 8L10.74 8ZM19.22 9.08L17.03 9.08L15.56 12.62L13.97 9.08L11.8 9.08L11.8 13.89L9.78 9.08L7.83 9.08L5.5 14.59L7.02 14.59L7.5 13.4L10.04 13.4L10.53 14.59L13.19 14.59L13.19 10.66L14.9 14.6L16.07 14.6L17.77 10.67L17.77 14.6L19.2 14.6L19.22 9.08L19.22 9.08ZM28.36 11.85L30.83 9.08L29.05 9.08L27.49 10.81L25.97 9.08L20.2 9.08L20.2 14.6L25.89 14.6L27.47 12.86L28.98 14.6L30.82 14.6L28.36 11.85L28.36 11.85Z" fill="#FFFFFF" fill-opacity="1.000000" fill-rule="nonzero"/>
	</g>
</svg>
