<svg width="332.126465" height="307.000000" viewBox="0 0 332.126 307" fill="none" xmlns="http://www.w3.org/2000/svg" xmlns:xlink="http://www.w3.org/1999/xlink">
	<desc>
			Created with Pixso.
	</desc>
	<defs>
		<filter id="filter_21_1668_dd" x="0.000000" y="215.000000" width="302.126465" height="92.000000" filterUnits="userSpaceOnUse" color-interpolation-filters="sRGB">
			<feFlood flood-opacity="0" result="BackgroundImageFix"/>
			<feColorMatrix in="SourceAlpha" type="matrix" values="0 0 0 0 0 0 0 0 0 0 0 0 0 0 0 0 0 0 127 0" result="hardAlpha"/>
			<feOffset dx="0" dy="5"/>
			<feGaussianBlur stdDeviation="6.66667"/>
			<feComposite in2="hardAlpha" operator="out" k2="-1" k3="1"/>
			<feColorMatrix type="matrix" values="0 0 0 0 0 0 0 0 0 0.32549 0 0 0 0 0.96471 0 0 0 0.1 0"/>
			<feBlend mode="normal" in2="BackgroundImageFix" result="effect_dropShadow_1"/>
			<feBlend mode="normal" in="SourceGraphic" in2="effect_dropShadow_1" result="shape"/>
		</filter>
		<filter id="filter_21_1669_dd" x="194.991699" y="0.000000" width="137.134766" height="134.000000" filterUnits="userSpaceOnUse" color-interpolation-filters="sRGB">
			<feFlood flood-opacity="0" result="BackgroundImageFix"/>
			<feColorMatrix in="SourceAlpha" type="matrix" values="0 0 0 0 0 0 0 0 0 0 0 0 0 0 0 0 0 0 127 0" result="hardAlpha"/>
			<feOffset dx="0" dy="10"/>
			<feGaussianBlur stdDeviation="16.6667"/>
			<feComposite in2="hardAlpha" operator="out" k2="-1" k3="1"/>
			<feColorMatrix type="matrix" values="0 0 0 0 0.015686 0 0 0 0 0.11765 0 0 0 0 0.25882 0 0 0 0.051 0"/>
			<feBlend mode="normal" in2="BackgroundImageFix" result="effect_dropShadow_1"/>
			<feBlend mode="normal" in="SourceGraphic" in2="effect_dropShadow_1" result="shape"/>
		</filter>
		<clipPath id="clip21_1672">
			<rect id="heart 1" width="17.475098" height="16.000000" transform="translate(254.821289 50.000000)" fill="white" fill-opacity="0"/>
		</clipPath>
		<clipPath id="clip21_1678">
			<rect id="show 1" width="16.000000" height="16.000000" transform="translate(233.155762 90.000000)" fill="white" fill-opacity="0"/>
		</clipPath>
		<clipPath id="clip21_1682">
			<rect id="graph 1" width="14.000000" height="14.000000" transform="translate(234.155762 132.000000)" fill="white" fill-opacity="0"/>
		</clipPath>
	</defs>
	<g filter="url(#filter_21_1668_dd)">
		<rect id="cart" rx="6.000000" width="262.126282" height="52.000000" transform="translate(20.000000 230.000000)" fill="#0053F6" fill-opacity="1.000000"/>
		<path id="Shop Now" d="M129.09 255.47L129.09 249.51L130.73 249.51L130.73 261.21L129.09 261.21L129.09 260.04C128.87 260.41 128.59 260.7 128.25 260.92C127.82 261.21 127.32 261.36 126.74 261.36Q126.3 261.36 125.89 261.25Q125.47 261.15 125.07 260.94Q124.85 260.81 124.66 260.66Q124.17 260.27 123.84 259.69C123.53 259.15 123.38 258.51 123.38 257.76Q123.38 256.62 123.84 255.82C124.15 255.28 124.56 254.87 125.07 254.59C125.59 254.3 126.15 254.16 126.74 254.16C127.32 254.16 127.82 254.3 128.25 254.59C128.59 254.81 128.87 255.11 129.09 255.47ZM129.09 257.76Q129.09 257.05 128.79 256.57C128.6 256.24 128.35 255.99 128.04 255.82C127.74 255.65 127.44 255.57 127.13 255.57Q126.8 255.57 126.5 255.66Q126.29 255.72 126.09 255.82Q125.98 255.89 125.87 255.97Q125.56 256.2 125.34 256.57C125.15 256.9 125.06 257.3 125.06 257.76Q125.06 258.45 125.34 258.94Q125.56 259.31 125.87 259.55Q125.98 259.63 126.09 259.69C126.41 259.86 126.76 259.95 127.13 259.95C127.44 259.95 127.74 259.86 128.04 259.69C128.35 259.52 128.6 259.28 128.79 258.96C128.99 258.63 129.09 258.23 129.09 257.76ZM137.92 255.47L137.92 249.51L139.56 249.51L139.56 261.21L137.92 261.21L137.92 260.04C137.7 260.41 137.42 260.7 137.09 260.92C136.66 261.21 136.15 261.36 135.57 261.36Q135.13 261.36 134.72 261.25Q134.3 261.15 133.91 260.94Q133.69 260.81 133.49 260.66Q133.01 260.27 132.67 259.69C132.37 259.15 132.21 258.51 132.21 257.76Q132.21 256.62 132.67 255.82C132.99 255.28 133.39 254.87 133.91 254.59C134.42 254.3 134.98 254.16 135.57 254.16C136.15 254.16 136.66 254.3 137.09 254.59C137.42 254.81 137.7 255.11 137.92 255.47ZM137.92 257.76Q137.92 257.05 137.63 256.57Q137.41 256.2 137.1 255.97Q136.99 255.89 136.88 255.82C136.58 255.65 136.27 255.57 135.96 255.57C135.59 255.57 135.25 255.65 134.92 255.82Q134.81 255.89 134.7 255.97Q134.39 256.2 134.17 256.57C133.99 256.9 133.89 257.3 133.89 257.76Q133.89 258.45 134.17 258.94Q134.39 259.31 134.7 259.55Q134.81 259.63 134.92 259.69C135.25 259.86 135.59 259.95 135.96 259.95C136.27 259.95 136.58 259.86 136.88 259.69Q137.02 259.61 137.15 259.51Q137.43 259.29 137.63 258.96C137.83 258.63 137.92 258.23 137.92 257.76ZM119.11 257.01L117.69 253.68L116.26 257.01L119.11 257.01ZM119.62 258.51L120.82 261.21L122.82 261.21L117.69 250.12L112.56 261.21L114.55 261.21L115.75 258.51L119.62 258.51ZM165.02 254.01Q164.53 254.83 164.53 255.96Q164.53 257 164.97 257.81Q164.99 257.86 165.02 257.91C165.36 258.47 165.8 258.9 166.34 259.21C166.89 259.51 167.49 259.66 168.13 259.66C168.63 259.66 169.08 259.6 169.48 259.47Q170.08 259.27 170.56 258.94C170.89 258.71 171.17 258.46 171.41 258.18L171.41 260.28C170.97 260.64 170.5 260.91 169.99 261.1C169.48 261.29 168.84 261.39 168.07 261.39C167.3 261.39 166.58 261.26 165.91 261C165.25 260.74 164.67 260.36 164.18 259.87C163.69 259.38 163.31 258.81 163.03 258.15C162.76 257.48 162.62 256.75 162.62 255.96C162.62 255.17 162.76 254.44 163.03 253.78C163.31 253.11 163.69 252.53 164.18 252.04C164.67 251.55 165.25 251.18 165.91 250.92C166.58 250.66 167.3 250.53 168.07 250.53C168.84 250.53 169.48 250.62 169.99 250.81C170.5 251 170.97 251.28 171.41 251.64L171.41 253.74C171.17 253.46 170.89 253.21 170.56 252.99C170.24 252.76 169.88 252.58 169.48 252.45C169.08 252.32 168.63 252.25 168.13 252.25C167.49 252.25 166.89 252.41 166.34 252.72C165.8 253.02 165.36 253.45 165.02 254.01ZM146.26 254.31L146.26 251.91L147.87 251.91L147.87 254.31L149.02 254.31L149.02 255.73L147.87 255.73L147.87 261.21L146.26 261.21L146.26 255.73L145.11 255.73L145.11 254.31L146.26 254.31ZM186.76 254.31L186.76 251.91L188.37 251.91L188.37 254.31L189.52 254.31L189.52 255.73L188.37 255.73L188.37 261.21L186.76 261.21L186.76 255.73L185.61 255.73L185.61 254.31L186.76 254.31ZM174.42 255.85C174.22 255.95 174.07 256.04 173.97 256.11L173.31 254.97C173.62 254.78 174.02 254.59 174.51 254.41Q175.26 254.14 176.22 254.14C176.79 254.14 177.29 254.23 177.72 254.4Q178.37 254.65 178.75 255.12Q178.75 255.13 178.75 255.13Q178.82 255.22 178.88 255.32Q179.13 255.73 179.13 256.29L179.13 261.21L177.54 261.21L177.54 260.28C177.49 260.35 177.44 260.42 177.39 260.49C177.14 260.78 176.82 261 176.43 261.15Q176.09 261.27 175.73 261.32Q175.5 261.36 175.26 261.36C174.83 261.36 174.43 261.27 174.06 261.1C173.69 260.93 173.39 260.68 173.17 260.35C172.95 260.02 172.84 259.62 172.84 259.15Q172.84 258.52 173.12 258.06Q173.29 257.78 173.55 257.56C174.02 257.16 174.68 256.96 175.54 256.96C176 256.96 176.4 257.01 176.73 257.11C177.05 257.21 177.32 257.32 177.54 257.45L177.54 256.6C177.54 256.38 177.5 256.2 177.42 256.06C177.35 255.92 177.25 255.81 177.12 255.72C176.99 255.63 176.83 255.56 176.65 255.52C176.47 255.48 176.28 255.46 176.07 255.46C175.75 255.46 175.44 255.5 175.15 255.58C174.87 255.65 174.63 255.74 174.42 255.85ZM177.54 258.37C177.38 258.29 177.21 258.23 177.04 258.18C176.69 258.08 176.32 258.03 175.93 258.03C175.59 258.03 175.32 258.07 175.11 258.16C174.9 258.24 174.74 258.36 174.63 258.51C174.53 258.66 174.48 258.84 174.48 259.06C174.48 259.29 174.53 259.49 174.64 259.66C174.75 259.82 174.9 259.94 175.09 260.02C175.29 260.1 175.52 260.14 175.77 260.14C176.09 260.14 176.38 260.08 176.64 259.95C176.91 259.82 177.12 259.63 177.28 259.38Q177.34 259.29 177.39 259.19Q177.54 258.87 177.54 258.48L177.54 258.37ZM150.09 259.63C149.77 259.08 149.61 258.46 149.61 257.76C149.61 257.05 149.77 256.42 150.09 255.88Q150.33 255.49 150.66 255.18Q151 254.85 151.43 254.62C151.99 254.31 152.62 254.16 153.33 254.16C154.04 254.16 154.67 254.31 155.22 254.62C155.78 254.92 156.23 255.34 156.56 255.88C156.89 256.42 157.05 257.05 157.05 257.76C157.05 258.46 156.89 259.08 156.56 259.63C156.23 260.17 155.78 260.6 155.22 260.91C154.67 261.21 154.04 261.36 153.33 261.36C152.62 261.36 151.99 261.21 151.43 260.91C150.87 260.6 150.42 260.17 150.09 259.63ZM185.46 254.67L184.68 256.03C184.53 255.91 184.39 255.82 184.26 255.76C184.13 255.7 183.96 255.67 183.76 255.67C183.49 255.67 183.27 255.74 183.1 255.88C182.93 256.02 182.81 256.22 182.73 256.47C182.66 256.71 182.62 256.99 182.62 257.32L182.62 261.21L181.02 261.21L181.02 254.31L182.62 254.31L182.62 255.14Q182.86 254.78 183.18 254.53C183.51 254.28 183.85 254.16 184.2 254.16C184.45 254.16 184.68 254.2 184.9 254.28C185.12 254.35 185.31 254.48 185.46 254.67ZM151.55 256.62Q151.28 257.11 151.28 257.76Q151.28 258.4 151.55 258.9C151.73 259.22 151.97 259.47 152.28 259.66C152.59 259.84 152.94 259.93 153.33 259.93C153.71 259.93 154.06 259.84 154.37 259.66C154.69 259.47 154.94 259.22 155.12 258.9C155.3 258.57 155.39 258.19 155.39 257.76Q155.39 257.11 155.12 256.62Q154.96 256.33 154.74 256.12Q154.57 255.97 154.37 255.85C154.06 255.67 153.71 255.58 153.33 255.58C152.94 255.58 152.59 255.67 152.28 255.85C151.97 256.03 151.73 256.29 151.55 256.62Z" fill="#041E42" fill-opacity="1.000000" fill-rule="evenodd"/>
	</g>
	<g filter="url(#filter_21_1669_dd)">
		<ellipse id="Ellipse 62" cx="263.559082" cy="57.000000" rx="18.567284" ry="17.000000" fill="#F5C34B" fill-opacity="1.000000"/>
	</g>
	<rect id="heart 1" width="17.475098" height="16.000000" transform="translate(254.821289 50.000000)" fill="#FFFFFF" fill-opacity="0"/>
	<g clip-path="url(#clip21_1672)">
		<path id="Vector" d="M266.43 52.58C268.49 52.58 270.16 54.13 270.16 56.31C270.16 60.65 265.08 63.14 263.38 64.07C261.68 63.14 256.6 60.65 256.6 56.31C256.6 54.13 258.29 52.58 260.33 52.58C261.59 52.58 262.7 53.2 263.38 53.82C264.06 53.2 265.17 52.58 266.43 52.58ZM264.01 62.27C264.61 61.92 265.15 61.58 265.66 61.21C267.68 59.74 268.81 58.13 268.81 56.31C268.81 54.84 267.76 53.82 266.43 53.82C265.7 53.82 264.91 54.18 264.34 54.7L263.38 55.58L262.42 54.7C261.85 54.18 261.06 53.82 260.33 53.82C259.01 53.82 257.95 54.85 257.95 56.31C257.95 58.13 259.08 59.74 261.1 61.21C261.61 61.58 262.15 61.92 262.75 62.27C262.95 62.39 263.15 62.5 263.38 62.62C263.61 62.5 263.81 62.39 264.01 62.27Z" fill="#041E42" fill-opacity="1.000000" fill-rule="nonzero"/>
	</g>
	<ellipse id="Ellipse 63" cx="263.559082" cy="98.000000" rx="18.567284" ry="17.000000" fill="#FFFFFF" fill-opacity="1.000000"/>
	<rect id="show 1" width="16.000000" height="16.000000" transform="translate(233.155762 90.000000)" fill="#FFFFFF" fill-opacity="0"/>
	<g clip-path="url(#clip21_1678)">
		<path id="Vector" d="M241.15 96.42C240.27 96.42 239.54 97.14 239.54 98.03C239.54 98.92 240.27 99.64 241.15 99.64C242.04 99.64 242.76 98.92 242.76 98.03C242.76 97.14 242.04 96.42 241.15 96.42ZM238.54 98.03C238.54 96.59 239.71 95.42 241.15 95.42C242.59 95.42 243.76 96.59 243.76 98.03C243.76 99.47 242.59 100.64 241.15 100.64C239.71 100.64 238.54 99.47 238.54 98.03Z" fill="#041E42" fill-opacity="1.000000" fill-rule="evenodd"/>
		<path id="Vector" d="M236.47 94.39C237.66 93.38 239.32 92.66 241.15 92.66C242.99 92.66 244.64 93.38 245.84 94.39C247.02 95.39 247.82 96.74 247.82 98.03C247.82 99.32 247.02 100.67 245.84 101.67C244.64 102.68 242.99 103.4 241.15 103.4C239.32 103.4 237.66 102.68 236.47 101.67C235.29 100.67 234.48 99.32 234.48 98.03C234.48 96.74 235.29 95.39 236.47 94.39ZM237.11 95.16C236.06 96.04 235.48 97.13 235.48 98.03C235.48 98.93 236.06 100.02 237.11 100.9C238.15 101.78 239.58 102.4 241.15 102.4C242.72 102.4 244.16 101.78 245.19 100.9C246.24 100.02 246.82 98.93 246.82 98.03C246.82 97.13 246.24 96.04 245.19 95.16C244.16 94.28 242.72 93.66 241.15 93.66C239.58 93.66 238.15 94.28 237.11 95.16Z" fill="#041E42" fill-opacity="1.000000" fill-rule="evenodd"/>
	</g>
	<ellipse id="Ellipse 64" cx="263.559082" cy="139.000000" rx="18.567284" ry="17.000000" fill="#FFFFFF" fill-opacity="1.000000"/>
	<rect id="graph 1" width="14.000000" height="14.000000" transform="translate(234.155762 132.000000)" fill="#FFFFFF" fill-opacity="0"/>
	<g clip-path="url(#clip21_1682)">
		<path id="Vector" d="M247.71 143.62L247.43 143.62L247.43 133.94C247.43 133.7 247.24 133.5 247 133.5L244.33 133.5C244.09 133.5 243.89 133.7 243.89 133.94L243.89 143.62L242.92 143.62L242.92 135.98C242.92 135.74 242.73 135.54 242.49 135.54L239.82 135.54C239.58 135.54 239.38 135.74 239.38 135.98L239.38 143.62L238.41 143.62L238.41 138.02C238.41 137.78 238.22 137.58 237.98 137.58L235.31 137.58C235.07 137.58 234.87 137.78 234.87 138.02L234.87 143.62L234.59 143.62C234.35 143.62 234.15 143.82 234.15 144.06C234.15 144.3 234.35 144.49 234.59 144.49L247.71 144.49C247.96 144.49 248.15 144.3 248.15 144.06C248.15 143.82 247.96 143.62 247.71 143.62ZM244.76 134.37L246.56 134.37L246.56 143.62L244.76 143.62L244.76 134.37ZM240.25 143.62L240.25 136.42L242.05 136.42L242.05 143.62L240.25 143.62ZM235.74 138.46L237.54 138.46L237.54 143.62L235.74 143.62L235.74 138.46Z" fill="#041E42" fill-opacity="1.000000" fill-rule="nonzero"/>
	</g>
</svg>
