<svg width="19.923828" height="19.179688" viewBox="0 0 19.9238 19.1797" fill="none" xmlns="http://www.w3.org/2000/svg" xmlns:xlink="http://www.w3.org/1999/xlink">
	<desc>
			Created with Pixso.
	</desc>
	<defs>
		<clipPath id="clip7_3857">
			<rect width="19.924017" height="19.179810" fill="white" fill-opacity="0"/>
		</clipPath>
	</defs>
	<rect width="19.924017" height="19.179810" fill="#FFFFFF" fill-opacity="0"/>
	<g clip-path="url(#clip7_3857)">
		<path d="M9.08 1.54C4.96 1.54 1.61 4.77 1.61 8.73C1.61 12.69 4.96 15.93 9.08 15.93C10.83 15.93 12.45 15.33 13.73 14.35L16.84 17.34C17 17.49 17.21 17.57 17.43 17.56C17.64 17.56 17.85 17.48 18 17.33C18.16 17.18 18.25 16.98 18.25 16.77C18.25 16.56 18.17 16.36 18.02 16.21L14.91 13.21C15.93 11.98 16.55 10.42 16.55 8.73C16.55 4.77 13.19 1.54 9.08 1.54ZM9.08 3.14C12.3 3.14 14.89 5.63 14.89 8.73C14.89 11.83 12.3 14.33 9.08 14.33C5.86 14.33 3.27 11.83 3.27 8.73C3.27 5.63 5.86 3.14 9.08 3.14Z" fill="#443297" fill-opacity="1.000000" fill-rule="nonzero"/>
	</g>
</svg>
