<svg width="19.776367" height="21.976562" viewBox="0 0 19.7764 21.9766" fill="none" xmlns="http://www.w3.org/2000/svg" xmlns:xlink="http://www.w3.org/1999/xlink">
	<desc>
			Created with Pixso.
	</desc>
	<defs>
		<clipPath id="clip7_3829">
			<rect width="19.776442" height="21.976727" fill="white" fill-opacity="0"/>
		</clipPath>
	</defs>
	<rect width="19.776442" height="21.976727" fill="#FFFFFF" fill-opacity="0"/>
	<g clip-path="url(#clip7_3829)">
		<path d="M14.83 19.22C14.83 18.21 15.56 17.39 16.48 17.39C17.39 17.39 18.12 18.21 18.12 19.22C18.12 20.24 17.39 21.06 16.48 21.06C15.56 21.06 14.83 20.24 14.83 19.22Z" fill="#FFFFFF" fill-opacity="1.000000" fill-rule="evenodd"/>
		<path d="M5.76 19.22C5.76 18.21 6.5 17.39 7.41 17.39C8.32 17.39 9.06 18.21 9.06 19.22C9.06 20.24 8.32 21.06 7.41 21.06C6.5 21.06 5.76 20.24 5.76 19.22Z" fill="#FFFFFF" fill-opacity="1.000000" fill-rule="evenodd"/>
		<path d="M0 0.91C0 0.41 0.36 0 0.82 0L4.12 0C4.51 0 4.85 0.3 4.92 0.73L5.62 4.57L18.95 4.57C19.19 4.57 19.43 4.7 19.58 4.91C19.74 5.12 19.8 5.39 19.76 5.66L18.44 13.35C18.32 13.98 18.01 14.55 17.56 14.96C17.11 15.36 16.55 15.57 15.97 15.56L7.98 15.56C7.4 15.57 6.84 15.36 6.39 14.96C5.94 14.55 5.63 13.98 5.52 13.35L4.14 5.71C4.13 5.68 4.13 5.66 4.12 5.63L3.44 1.83L0.82 1.83C0.36 1.83 0 1.42 0 0.91L0 0.91ZM5.95 6.41L7.13 12.99C7.17 13.2 7.27 13.39 7.42 13.53C7.57 13.66 7.76 13.74 7.96 13.73L7.97 13.73L15.98 13.73L16 13.73C16.19 13.74 16.38 13.66 16.53 13.53C16.68 13.39 16.78 13.21 16.82 13L17.95 6.41L5.95 6.41Z" fill="#FFFFFF" fill-opacity="1.000000" fill-rule="evenodd"/>
	</g>
</svg>
