<svg width="28.101074" height="35.000000" viewBox="0 0 28.1011 35" fill="none" xmlns="http://www.w3.org/2000/svg" xmlns:xlink="http://www.w3.org/1999/xlink">
	<desc>
			Created with Pixso.
	</desc>
	<defs/>
	<path id="Vector" d="M28.06 9.49L28.06 9.46C28.05 9.13 28.04 8.77 28.03 8.38C28.01 6.45 26.56 4.85 24.74 4.74C20.95 4.52 18.01 3.21 15.5 0.61L15.48 0.59C14.66 -0.2 13.43 -0.2 12.61 0.59L12.59 0.61C10.08 3.21 7.15 4.52 3.35 4.74C1.53 4.85 0.09 6.45 0.06 8.38C0.05 8.77 0.04 9.13 0.03 9.46L0.03 9.53C-0.05 13.63 -0.14 18.74 1.47 23.37C2.36 25.92 3.7 28.14 5.46 29.96C7.46 32.03 10.09 33.68 13.26 34.85C13.37 34.89 13.47 34.92 13.58 34.95C13.74 34.98 13.89 35 14.05 35C14.2 35 14.36 34.98 14.51 34.95C14.62 34.92 14.73 34.89 14.83 34.85C18 33.68 20.62 32.03 22.62 29.96C24.38 28.13 25.73 25.92 26.61 23.37C28.23 18.72 28.14 13.6 28.06 9.49ZM24.79 22.66C23.1 27.54 19.63 30.9 14.19 32.91C14.17 32.92 14.15 32.93 14.13 32.93C14.07 32.94 14.02 32.94 13.96 32.93C13.94 32.93 13.92 32.92 13.9 32.91C8.46 30.9 4.99 27.55 3.29 22.66C1.81 18.39 1.89 13.7 1.96 9.57L1.96 9.54C1.98 9.19 1.99 8.82 2 8.41C2.01 7.55 2.65 6.84 3.46 6.79C5.61 6.67 7.49 6.23 9.23 5.45C10.96 4.67 12.5 3.58 13.93 2.1C14 2.03 14.09 2.03 14.17 2.1C15.6 3.58 17.13 4.67 18.87 5.45C20.6 6.23 22.48 6.67 24.63 6.79C25.44 6.84 26.08 7.55 26.1 8.41C26.1 8.82 26.11 9.19 26.13 9.54C26.2 13.68 26.28 18.38 24.79 22.66Z" fill="#041E42" fill-opacity="1.000000" fill-rule="nonzero"/>
</svg>
